<svg xmlns="http://www.w3.org/2000/svg" xmlns:xlink="http://www.w3.org/1999/xlink" width="500" zoomAndPan="magnify" viewBox="0 0 375 374.999991" height="500" preserveAspectRatio="xMidYMid meet" version="1.0"><defs><g/><clipPath id="8fdf56eebd"><path d="M 192.703125 117.738281 L 272.582031 117.738281 L 272.582031 180.925781 L 192.703125 180.925781 Z M 192.703125 117.738281 " clip-rule="nonzero"/></clipPath><clipPath id="2b189d2b51"><path d="M 222.042969 117.738281 L 323.242188 117.738281 L 323.242188 180.925781 L 222.042969 180.925781 Z M 222.042969 117.738281 " clip-rule="nonzero"/></clipPath><clipPath id="5842a13224"><path d="M 272.582031 117.738281 L 323.121094 180.925781 L 222.042969 180.925781 Z M 272.582031 117.738281 " clip-rule="nonzero"/></clipPath><clipPath id="121b2394dd"><path d="M 150.160156 91.050781 L 294 91.050781 L 294 180.925781 L 150.160156 180.925781 Z M 150.160156 91.050781 " clip-rule="nonzero"/></clipPath><clipPath id="dbc6a70eca"><path d="M 222.042969 91.050781 L 293.925781 180.925781 L 150.160156 180.925781 Z M 222.042969 91.050781 " clip-rule="nonzero"/></clipPath><clipPath id="ed02770512"><path d="M 74.890625 101.664062 L 96.511719 101.664062 L 96.511719 160.839844 L 74.890625 160.839844 Z M 74.890625 101.664062 " clip-rule="nonzero"/></clipPath><clipPath id="693909ad09"><path d="M 53.394531 91.050781 L 197.332031 91.050781 L 197.332031 180.925781 L 53.394531 180.925781 Z M 53.394531 91.050781 " clip-rule="nonzero"/></clipPath><clipPath id="a69f3e2114"><path d="M 125.277344 91.050781 L 197.160156 180.925781 L 53.394531 180.925781 Z M 125.277344 91.050781 " clip-rule="nonzero"/></clipPath><clipPath id="eeb0a8f394"><path d="M 125.277344 91.050781 L 222.042969 91.050781 L 222.042969 180.925781 L 125.277344 180.925781 Z M 125.277344 91.050781 " clip-rule="nonzero"/></clipPath><clipPath id="84926e9962"><path d="M 222.042969 125.296875 L 317.191406 125.296875 L 317.191406 184.707031 L 222.042969 184.707031 Z M 222.042969 125.296875 " clip-rule="nonzero"/></clipPath><clipPath id="d2c075b15c"><path d="M 269.558594 125.296875 L 317.074219 184.707031 L 222.042969 184.707031 Z M 269.558594 125.296875 " clip-rule="nonzero"/></clipPath><clipPath id="bd7cfa4871"><path d="M 197 110 L 273 110 L 273 121 L 197 121 Z M 197 110 " clip-rule="nonzero"/></clipPath><clipPath id="4e8c055051"><path d="M 197.835938 123.734375 L 197.285156 116.835938 L 272.054688 110.832031 L 272.609375 117.730469 Z M 197.835938 123.734375 " clip-rule="nonzero"/></clipPath><clipPath id="6d16981014"><path d="M 197.5625 120.285156 L 272.03125 110.835938 L 272.585938 117.730469 Z M 197.5625 120.285156 " clip-rule="nonzero"/></clipPath><clipPath id="84cac6e5ea"><path d="M 61.003906 98.597656 L 195 98.597656 L 195 182.292969 L 61.003906 182.292969 Z M 61.003906 98.597656 " clip-rule="nonzero"/></clipPath><clipPath id="a915ca396a"><path d="M 127.949219 98.597656 L 194.890625 182.292969 L 61.003906 182.292969 Z M 127.949219 98.597656 " clip-rule="nonzero"/></clipPath><clipPath id="478399d93d"><path d="M 72.917969 101.664062 L 98.484375 101.664062 L 98.484375 108.113281 L 72.917969 108.113281 Z M 72.917969 101.664062 " clip-rule="nonzero"/></clipPath><clipPath id="526a168796"><path d="M 116.648438 153.195312 L 126.996094 153.195312 L 126.996094 163.738281 L 116.648438 163.738281 Z M 116.648438 153.195312 " clip-rule="nonzero"/></clipPath><clipPath id="fcaea4b27b"><path d="M 260.339844 159.617188 L 268.785156 159.617188 L 268.785156 168.222656 L 260.339844 168.222656 Z M 260.339844 159.617188 " clip-rule="nonzero"/></clipPath><clipPath id="988afbf4c0"><path d="M 116.648438 139.832031 L 126.996094 139.832031 L 126.996094 150.375 L 116.648438 150.375 Z M 116.648438 139.832031 " clip-rule="nonzero"/></clipPath><clipPath id="6d73a10aab"><path d="M 260.339844 148.710938 L 268.785156 148.710938 L 268.785156 157.316406 L 260.339844 157.316406 Z M 260.339844 148.710938 " clip-rule="nonzero"/></clipPath><clipPath id="e805626e64"><path d="M 128.898438 153.195312 L 139.246094 153.195312 L 139.246094 163.738281 L 128.898438 163.738281 Z M 128.898438 153.195312 " clip-rule="nonzero"/></clipPath><clipPath id="14c8ce85fb"><path d="M 270.335938 159.617188 L 278.78125 159.617188 L 278.78125 168.222656 L 270.335938 168.222656 Z M 270.335938 159.617188 " clip-rule="nonzero"/></clipPath><clipPath id="e8545d7b74"><path d="M 128.898438 139.832031 L 139.246094 139.832031 L 139.246094 150.375 L 128.898438 150.375 Z M 128.898438 139.832031 " clip-rule="nonzero"/></clipPath><clipPath id="8604f7b59d"><path d="M 270.335938 148.710938 L 278.78125 148.710938 L 278.78125 157.316406 L 270.335938 157.316406 Z M 270.335938 148.710938 " clip-rule="nonzero"/></clipPath><clipPath id="a01d9dd515"><path d="M 13.921875 170.585938 L 361.140625 170.585938 L 361.140625 215.234375 L 13.921875 215.234375 Z M 13.921875 170.585938 " clip-rule="nonzero"/></clipPath><clipPath id="fac9270bab"><path d="M 187.5 170.585938 C 91.632812 170.585938 13.921875 180.582031 13.921875 192.910156 C 13.921875 205.238281 91.632812 215.234375 187.5 215.234375 C 283.367188 215.234375 361.078125 205.238281 361.078125 192.910156 C 361.078125 180.582031 283.367188 170.585938 187.5 170.585938 Z M 187.5 170.585938 " clip-rule="nonzero"/></clipPath><clipPath id="3202201548"><path d="M 0 177.683594 L 375 177.683594 L 375 222.332031 L 0 222.332031 Z M 0 177.683594 " clip-rule="nonzero"/></clipPath><clipPath id="e25f86367d"><path d="M 187.5 177.683594 C 79.917969 177.683594 -7.292969 187.679688 -7.292969 200.007812 C -7.292969 212.335938 79.917969 222.332031 187.5 222.332031 C 295.082031 222.332031 382.292969 212.335938 382.292969 200.007812 C 382.292969 187.679688 295.082031 177.683594 187.5 177.683594 Z M 187.5 177.683594 " clip-rule="nonzero"/></clipPath></defs><rect x="-37.5" width="450" fill="#ffffff" y="-37.499999" height="449.999989" fill-opacity="1"/><rect x="-37.5" width="450" fill="#12763e" y="-37.499999" height="449.999989" fill-opacity="1"/><g clip-path="url(#8fdf56eebd)"><path fill="#ffffff" d="M 192.703125 117.738281 L 272.675781 117.738281 L 272.675781 180.925781 L 192.703125 180.925781 Z M 192.703125 117.738281 " fill-opacity="1" fill-rule="nonzero"/></g><g clip-path="url(#2b189d2b51)"><g clip-path="url(#5842a13224)"><path fill="#ffffff" d="M 222.042969 117.738281 L 323.242188 117.738281 L 323.242188 180.925781 L 222.042969 180.925781 Z M 222.042969 117.738281 " fill-opacity="1" fill-rule="nonzero"/></g></g><g clip-path="url(#121b2394dd)"><g clip-path="url(#dbc6a70eca)"><path fill="#ffffff" d="M 150.160156 91.050781 L 294.101562 91.050781 L 294.101562 180.925781 L 150.160156 180.925781 Z M 150.160156 91.050781 " fill-opacity="1" fill-rule="nonzero"/></g></g><g clip-path="url(#ed02770512)"><path fill="#ffffff" d="M 74.890625 101.664062 L 96.511719 101.664062 L 96.511719 160.871094 L 74.890625 160.871094 Z M 74.890625 101.664062 " fill-opacity="1" fill-rule="nonzero"/></g><g clip-path="url(#693909ad09)"><g clip-path="url(#a69f3e2114)"><path fill="#ffffff" d="M 53.394531 91.050781 L 197.332031 91.050781 L 197.332031 180.925781 L 53.394531 180.925781 Z M 53.394531 91.050781 " fill-opacity="1" fill-rule="nonzero"/></g></g><g clip-path="url(#eeb0a8f394)"><path fill="#ffffff" d="M 125.277344 91.050781 L 222.171875 91.050781 L 222.171875 180.925781 L 125.277344 180.925781 Z M 125.277344 91.050781 " fill-opacity="1" fill-rule="nonzero"/></g><g clip-path="url(#84926e9962)"><g clip-path="url(#d2c075b15c)"><path fill="#12763e" d="M 222.042969 125.296875 L 317.191406 125.296875 L 317.191406 184.707031 L 222.042969 184.707031 Z M 222.042969 125.296875 " fill-opacity="1" fill-rule="nonzero"/></g></g><g clip-path="url(#bd7cfa4871)"><g clip-path="url(#4e8c055051)"><g clip-path="url(#6d16981014)"><path fill="#12763e" d="M 197.835938 123.734375 L 197.285156 116.835938 L 272.027344 110.835938 L 272.582031 117.730469 Z M 197.835938 123.734375 " fill-opacity="1" fill-rule="nonzero"/></g></g></g><g clip-path="url(#84cac6e5ea)"><g clip-path="url(#a915ca396a)"><path fill="#12763e" d="M 61.003906 98.597656 L 195.050781 98.597656 L 195.050781 182.292969 L 61.003906 182.292969 Z M 61.003906 98.597656 " fill-opacity="1" fill-rule="nonzero"/></g></g><g clip-path="url(#478399d93d)"><path fill="#ffffff" d="M 72.917969 101.664062 L 98.492188 101.664062 L 98.492188 108.113281 L 72.917969 108.113281 Z M 72.917969 101.664062 " fill-opacity="1" fill-rule="nonzero"/></g><g clip-path="url(#526a168796)"><path fill="#ffffff" d="M 116.648438 153.195312 L 126.996094 153.195312 L 126.996094 163.746094 L 116.648438 163.746094 Z M 116.648438 153.195312 " fill-opacity="1" fill-rule="nonzero"/></g><g clip-path="url(#fcaea4b27b)"><path fill="#ffffff" d="M 260.339844 159.617188 L 268.785156 159.617188 L 268.785156 168.226562 L 260.339844 168.226562 Z M 260.339844 159.617188 " fill-opacity="1" fill-rule="nonzero"/></g><g clip-path="url(#988afbf4c0)"><path fill="#ffffff" d="M 116.648438 139.832031 L 126.996094 139.832031 L 126.996094 150.382812 L 116.648438 150.382812 Z M 116.648438 139.832031 " fill-opacity="1" fill-rule="nonzero"/></g><g clip-path="url(#6d73a10aab)"><path fill="#ffffff" d="M 260.339844 148.710938 L 268.785156 148.710938 L 268.785156 157.320312 L 260.339844 157.320312 Z M 260.339844 148.710938 " fill-opacity="1" fill-rule="nonzero"/></g><g clip-path="url(#e805626e64)"><path fill="#ffffff" d="M 128.898438 153.195312 L 139.246094 153.195312 L 139.246094 163.746094 L 128.898438 163.746094 Z M 128.898438 153.195312 " fill-opacity="1" fill-rule="nonzero"/></g><g clip-path="url(#14c8ce85fb)"><path fill="#ffffff" d="M 270.335938 159.617188 L 278.78125 159.617188 L 278.78125 168.226562 L 270.335938 168.226562 Z M 270.335938 159.617188 " fill-opacity="1" fill-rule="nonzero"/></g><g clip-path="url(#e8545d7b74)"><path fill="#ffffff" d="M 128.898438 139.832031 L 139.246094 139.832031 L 139.246094 150.382812 L 128.898438 150.382812 Z M 128.898438 139.832031 " fill-opacity="1" fill-rule="nonzero"/></g><g clip-path="url(#8604f7b59d)"><path fill="#ffffff" d="M 270.335938 148.710938 L 278.78125 148.710938 L 278.78125 157.320312 L 270.335938 157.320312 Z M 270.335938 148.710938 " fill-opacity="1" fill-rule="nonzero"/></g><g clip-path="url(#a01d9dd515)"><g clip-path="url(#fac9270bab)"><path fill="#ffffff" d="M 13.921875 170.585938 L 361.140625 170.585938 L 361.140625 215.234375 L 13.921875 215.234375 Z M 13.921875 170.585938 " fill-opacity="1" fill-rule="nonzero"/></g></g><g clip-path="url(#3202201548)"><g clip-path="url(#e25f86367d)"><path fill="#12763e" d="M -7.292969 177.683594 L 382.304688 177.683594 L 382.304688 222.332031 L -7.292969 222.332031 Z M -7.292969 177.683594 " fill-opacity="1" fill-rule="nonzero"/></g></g><g fill="#ffffff" fill-opacity="1"><g transform="translate(64.804605, 249.395191)"><g><path d="M 35.453125 -17.734375 C 35.453125 -15.140625 35.019531 -12.753906 34.15625 -10.578125 C 33.289062 -8.398438 32.070312 -6.523438 30.5 -4.953125 C 28.925781 -3.378906 27.035156 -2.160156 24.828125 -1.296875 C 22.617188 -0.429688 20.164062 0 17.46875 0 L 3.953125 0 L 3.953125 -35.484375 L 17.46875 -35.484375 C 20.164062 -35.484375 22.617188 -35.046875 24.828125 -34.171875 C 27.035156 -33.296875 28.925781 -32.078125 30.5 -30.515625 C 32.070312 -28.953125 33.289062 -27.082031 34.15625 -24.90625 C 35.019531 -22.726562 35.453125 -20.335938 35.453125 -17.734375 Z M 28.6875 -17.734375 C 28.6875 -19.679688 28.425781 -21.425781 27.90625 -22.96875 C 27.394531 -24.519531 26.648438 -25.832031 25.671875 -26.90625 C 24.703125 -27.976562 23.523438 -28.800781 22.140625 -29.375 C 20.765625 -29.945312 19.207031 -30.234375 17.46875 -30.234375 L 10.578125 -30.234375 L 10.578125 -5.25 L 17.46875 -5.25 C 19.207031 -5.25 20.765625 -5.535156 22.140625 -6.109375 C 23.523438 -6.679688 24.703125 -7.503906 25.671875 -8.578125 C 26.648438 -9.648438 27.394531 -10.957031 27.90625 -12.5 C 28.425781 -14.050781 28.6875 -15.796875 28.6875 -17.734375 Z M 28.6875 -17.734375 "/></g></g></g><g fill="#ffffff" fill-opacity="1"><g transform="translate(107.705109, 249.395191)"><g><path d="M 22.703125 -13.390625 L 18.375 -25.203125 C 18.164062 -25.722656 17.945312 -26.34375 17.71875 -27.0625 C 17.488281 -27.78125 17.257812 -28.554688 17.03125 -29.390625 C 16.820312 -28.554688 16.601562 -27.773438 16.375 -27.046875 C 16.144531 -26.328125 15.921875 -25.695312 15.703125 -25.15625 L 11.40625 -13.390625 Z M 34.359375 0 L 29.25 0 C 28.675781 0 28.207031 -0.140625 27.84375 -0.421875 C 27.488281 -0.710938 27.222656 -1.070312 27.046875 -1.5 L 24.390625 -8.734375 L 9.6875 -8.734375 L 7.046875 -1.5 C 6.910156 -1.125 6.65625 -0.78125 6.28125 -0.46875 C 5.90625 -0.15625 5.441406 0 4.890625 0 L -0.265625 0 L 13.6875 -35.484375 L 20.421875 -35.484375 Z M 34.359375 0 "/></g></g></g><g fill="#ffffff" fill-opacity="1"><g transform="translate(147.368011, 249.395191)"><g><path d="M 34.359375 -35.484375 L 20.03125 0 L 14.0625 0 L -0.265625 -35.484375 L 5.03125 -35.484375 C 5.601562 -35.484375 6.066406 -35.34375 6.421875 -35.0625 C 6.785156 -34.789062 7.054688 -34.429688 7.234375 -33.984375 L 15.609375 -12.34375 C 15.890625 -11.632812 16.15625 -10.859375 16.40625 -10.015625 C 16.65625 -9.179688 16.894531 -8.304688 17.125 -7.390625 C 17.320312 -8.304688 17.535156 -9.179688 17.765625 -10.015625 C 17.992188 -10.859375 18.25 -11.632812 18.53125 -12.34375 L 26.84375 -33.984375 C 26.976562 -34.359375 27.234375 -34.703125 27.609375 -35.015625 C 27.992188 -35.328125 28.46875 -35.484375 29.03125 -35.484375 Z M 34.359375 -35.484375 "/></g></g></g><g fill="#ffffff" fill-opacity="1"><g transform="translate(187.030918, 249.395191)"><g><path d="M 42.421875 -35.484375 L 42.421875 0 L 36.609375 0 L 36.609375 -22.921875 C 36.609375 -23.835938 36.660156 -24.828125 36.765625 -25.890625 L 26.03125 -5.734375 C 25.53125 -4.773438 24.753906 -4.296875 23.703125 -4.296875 L 22.765625 -4.296875 C 21.722656 -4.296875 20.945312 -4.773438 20.4375 -5.734375 L 9.59375 -25.96875 C 9.644531 -25.425781 9.6875 -24.890625 9.71875 -24.359375 C 9.75 -23.835938 9.765625 -23.359375 9.765625 -22.921875 L 9.765625 0 L 3.953125 0 L 3.953125 -35.484375 L 8.9375 -35.484375 C 9.226562 -35.484375 9.476562 -35.472656 9.6875 -35.453125 C 9.90625 -35.441406 10.097656 -35.398438 10.265625 -35.328125 C 10.441406 -35.265625 10.597656 -35.160156 10.734375 -35.015625 C 10.867188 -34.867188 11.003906 -34.671875 11.140625 -34.421875 L 21.765625 -14.71875 C 22.046875 -14.195312 22.300781 -13.65625 22.53125 -13.09375 C 22.769531 -12.539062 23.003906 -11.972656 23.234375 -11.390625 C 23.460938 -11.992188 23.695312 -12.578125 23.9375 -13.140625 C 24.1875 -13.703125 24.453125 -14.242188 24.734375 -14.765625 L 35.21875 -34.421875 C 35.34375 -34.671875 35.476562 -34.867188 35.625 -35.015625 C 35.769531 -35.160156 35.925781 -35.265625 36.09375 -35.328125 C 36.269531 -35.398438 36.460938 -35.441406 36.671875 -35.453125 C 36.890625 -35.472656 37.148438 -35.484375 37.453125 -35.484375 Z M 42.421875 -35.484375 "/></g></g></g><g fill="#ffffff" fill-opacity="1"><g transform="translate(238.98193, 249.395191)"><g><path d="M 22.703125 -13.390625 L 18.375 -25.203125 C 18.164062 -25.722656 17.945312 -26.34375 17.71875 -27.0625 C 17.488281 -27.78125 17.257812 -28.554688 17.03125 -29.390625 C 16.820312 -28.554688 16.601562 -27.773438 16.375 -27.046875 C 16.144531 -26.328125 15.921875 -25.695312 15.703125 -25.15625 L 11.40625 -13.390625 Z M 34.359375 0 L 29.25 0 C 28.675781 0 28.207031 -0.140625 27.84375 -0.421875 C 27.488281 -0.710938 27.222656 -1.070312 27.046875 -1.5 L 24.390625 -8.734375 L 9.6875 -8.734375 L 7.046875 -1.5 C 6.910156 -1.125 6.65625 -0.78125 6.28125 -0.46875 C 5.90625 -0.15625 5.441406 0 4.890625 0 L -0.265625 0 L 13.6875 -35.484375 L 20.421875 -35.484375 Z M 34.359375 0 "/></g></g></g><g fill="#ffffff" fill-opacity="1"><g transform="translate(278.644827, 249.395191)"><g><path d="M 14.671875 -18.59375 C 15.921875 -18.59375 17.003906 -18.75 17.921875 -19.0625 C 18.847656 -19.375 19.609375 -19.800781 20.203125 -20.34375 C 20.804688 -20.894531 21.253906 -21.546875 21.546875 -22.296875 C 21.835938 -23.054688 21.984375 -23.882812 21.984375 -24.78125 C 21.984375 -26.582031 21.390625 -27.960938 20.203125 -28.921875 C 19.015625 -29.890625 17.203125 -30.375 14.765625 -30.375 L 10.546875 -30.375 L 10.546875 -18.59375 Z M 31.65625 0 L 25.6875 0 C 24.5625 0 23.742188 -0.441406 23.234375 -1.328125 L 15.78125 -12.6875 C 15.5 -13.113281 15.191406 -13.414062 14.859375 -13.59375 C 14.523438 -13.769531 14.03125 -13.859375 13.375 -13.859375 L 10.546875 -13.859375 L 10.546875 0 L 3.953125 0 L 3.953125 -35.484375 L 14.765625 -35.484375 C 17.171875 -35.484375 19.238281 -35.234375 20.96875 -34.734375 C 22.695312 -34.234375 24.113281 -33.53125 25.21875 -32.625 C 26.320312 -31.726562 27.132812 -30.65625 27.65625 -29.40625 C 28.175781 -28.15625 28.4375 -26.78125 28.4375 -25.28125 C 28.4375 -24.082031 28.257812 -22.953125 27.90625 -21.890625 C 27.5625 -20.828125 27.054688 -19.859375 26.390625 -18.984375 C 25.722656 -18.117188 24.90625 -17.359375 23.9375 -16.703125 C 22.96875 -16.054688 21.859375 -15.546875 20.609375 -15.171875 C 21.035156 -14.921875 21.425781 -14.628906 21.78125 -14.296875 C 22.144531 -13.960938 22.472656 -13.566406 22.765625 -13.109375 Z M 31.65625 0 "/></g></g></g><g fill="#ffffff" fill-opacity="1"><g transform="translate(121.708412, 289.592046)"><g><path d="M 22.625 -23.71875 L 22.625 0 L 18.203125 0 L 18.203125 -10.359375 L 7.0625 -10.359375 L 7.0625 0 L 2.640625 0 L 2.640625 -23.71875 L 7.0625 -23.71875 L 7.0625 -13.515625 L 18.203125 -13.515625 L 18.203125 -23.71875 Z M 22.625 -23.71875 "/></g></g></g><g fill="#ffffff" fill-opacity="1"><g transform="translate(151.623043, 289.592046)"><g><path d="M 25.25 -11.859375 C 25.25 -10.117188 24.960938 -8.507812 24.390625 -7.03125 C 23.816406 -5.550781 23.003906 -4.269531 21.953125 -3.1875 C 20.910156 -2.101562 19.648438 -1.253906 18.171875 -0.640625 C 16.691406 -0.0351562 15.050781 0.265625 13.25 0.265625 C 11.457031 0.265625 9.820312 -0.0351562 8.34375 -0.640625 C 6.875 -1.253906 5.609375 -2.101562 4.546875 -3.1875 C 3.492188 -4.269531 2.675781 -5.550781 2.09375 -7.03125 C 1.519531 -8.507812 1.234375 -10.117188 1.234375 -11.859375 C 1.234375 -13.597656 1.519531 -15.207031 2.09375 -16.6875 C 2.675781 -18.164062 3.492188 -19.445312 4.546875 -20.53125 C 5.609375 -21.613281 6.875 -22.457031 8.34375 -23.0625 C 9.820312 -23.664062 11.457031 -23.96875 13.25 -23.96875 C 14.445312 -23.96875 15.578125 -23.828125 16.640625 -23.546875 C 17.703125 -23.273438 18.675781 -22.882812 19.5625 -22.375 C 20.445312 -21.863281 21.238281 -21.242188 21.9375 -20.515625 C 22.644531 -19.796875 23.242188 -18.988281 23.734375 -18.09375 C 24.234375 -17.195312 24.609375 -16.222656 24.859375 -15.171875 C 25.117188 -14.117188 25.25 -13.015625 25.25 -11.859375 Z M 20.75 -11.859375 C 20.75 -13.160156 20.570312 -14.328125 20.21875 -15.359375 C 19.863281 -16.390625 19.363281 -17.265625 18.71875 -17.984375 C 18.082031 -18.710938 17.300781 -19.265625 16.375 -19.640625 C 15.445312 -20.023438 14.40625 -20.21875 13.25 -20.21875 C 12.09375 -20.21875 11.050781 -20.023438 10.125 -19.640625 C 9.195312 -19.265625 8.40625 -18.710938 7.75 -17.984375 C 7.101562 -17.265625 6.601562 -16.390625 6.25 -15.359375 C 5.90625 -14.328125 5.734375 -13.160156 5.734375 -11.859375 C 5.734375 -10.554688 5.90625 -9.390625 6.25 -8.359375 C 6.601562 -7.328125 7.101562 -6.453125 7.75 -5.734375 C 8.40625 -5.015625 9.195312 -4.460938 10.125 -4.078125 C 11.050781 -3.703125 12.09375 -3.515625 13.25 -3.515625 C 14.40625 -3.515625 15.445312 -3.703125 16.375 -4.078125 C 17.300781 -4.460938 18.082031 -5.015625 18.71875 -5.734375 C 19.363281 -6.453125 19.863281 -7.328125 20.21875 -8.359375 C 20.570312 -9.390625 20.75 -10.554688 20.75 -11.859375 Z M 20.75 -11.859375 "/></g></g></g><g fill="#ffffff" fill-opacity="1"><g transform="translate(182.766917, 289.592046)"><g><path d="M 12.1875 -3.5625 C 13.039062 -3.5625 13.800781 -3.703125 14.46875 -3.984375 C 15.144531 -4.265625 15.710938 -4.660156 16.171875 -5.171875 C 16.628906 -5.691406 16.976562 -6.316406 17.21875 -7.046875 C 17.46875 -7.785156 17.59375 -8.609375 17.59375 -9.515625 L 17.59375 -23.71875 L 22 -23.71875 L 22 -9.515625 C 22 -8.097656 21.769531 -6.789062 21.3125 -5.59375 C 20.863281 -4.394531 20.21875 -3.363281 19.375 -2.5 C 18.53125 -1.632812 17.5 -0.957031 16.28125 -0.46875 C 15.070312 0.0195312 13.707031 0.265625 12.1875 0.265625 C 10.65625 0.265625 9.28125 0.0195312 8.0625 -0.46875 C 6.851562 -0.957031 5.820312 -1.632812 4.96875 -2.5 C 4.125 -3.363281 3.472656 -4.394531 3.015625 -5.59375 C 2.566406 -6.789062 2.34375 -8.097656 2.34375 -9.515625 L 2.34375 -23.71875 L 6.75 -23.71875 L 6.75 -9.53125 C 6.75 -8.625 6.875 -7.800781 7.125 -7.0625 C 7.375 -6.332031 7.726562 -5.707031 8.1875 -5.1875 C 8.65625 -4.664062 9.222656 -4.265625 9.890625 -3.984375 C 10.566406 -3.703125 11.332031 -3.5625 12.1875 -3.5625 Z M 12.1875 -3.5625 "/></g></g></g><g fill="#ffffff" fill-opacity="1"><g transform="translate(211.763715, 289.592046)"><g><path d="M 15.265625 -19.40625 C 15.128906 -19.175781 14.988281 -19.007812 14.84375 -18.90625 C 14.695312 -18.800781 14.515625 -18.75 14.296875 -18.75 C 14.066406 -18.75 13.816406 -18.832031 13.546875 -19 C 13.285156 -19.164062 12.96875 -19.351562 12.59375 -19.5625 C 12.21875 -19.769531 11.78125 -19.957031 11.28125 -20.125 C 10.789062 -20.300781 10.207031 -20.390625 9.53125 -20.390625 C 8.914062 -20.390625 8.378906 -20.3125 7.921875 -20.15625 C 7.460938 -20.007812 7.078125 -19.804688 6.765625 -19.546875 C 6.453125 -19.285156 6.21875 -18.96875 6.0625 -18.59375 C 5.914062 -18.226562 5.84375 -17.832031 5.84375 -17.40625 C 5.84375 -16.84375 5.992188 -16.375 6.296875 -16 C 6.609375 -15.632812 7.019531 -15.316406 7.53125 -15.046875 C 8.050781 -14.785156 8.640625 -14.550781 9.296875 -14.34375 C 9.953125 -14.132812 10.625 -13.910156 11.3125 -13.671875 C 12 -13.441406 12.671875 -13.171875 13.328125 -12.859375 C 13.984375 -12.546875 14.566406 -12.148438 15.078125 -11.671875 C 15.597656 -11.203125 16.015625 -10.625 16.328125 -9.9375 C 16.640625 -9.25 16.796875 -8.410156 16.796875 -7.421875 C 16.796875 -6.359375 16.609375 -5.359375 16.234375 -4.421875 C 15.867188 -3.484375 15.332031 -2.664062 14.625 -1.96875 C 13.925781 -1.28125 13.066406 -0.734375 12.046875 -0.328125 C 11.035156 0.0664062 9.875 0.265625 8.5625 0.265625 C 7.800781 0.265625 7.054688 0.1875 6.328125 0.03125 C 5.597656 -0.113281 4.894531 -0.320312 4.21875 -0.59375 C 3.550781 -0.863281 2.921875 -1.1875 2.328125 -1.5625 C 1.734375 -1.945312 1.207031 -2.378906 0.75 -2.859375 L 2.046875 -4.96875 C 2.160156 -5.125 2.300781 -5.253906 2.46875 -5.359375 C 2.644531 -5.460938 2.832031 -5.515625 3.03125 -5.515625 C 3.300781 -5.515625 3.59375 -5.398438 3.90625 -5.171875 C 4.226562 -4.953125 4.609375 -4.703125 5.046875 -4.421875 C 5.484375 -4.148438 5.992188 -3.898438 6.578125 -3.671875 C 7.171875 -3.453125 7.875 -3.34375 8.6875 -3.34375 C 9.945312 -3.34375 10.921875 -3.640625 11.609375 -4.234375 C 12.296875 -4.828125 12.640625 -5.6875 12.640625 -6.8125 C 12.640625 -7.425781 12.484375 -7.929688 12.171875 -8.328125 C 11.859375 -8.722656 11.445312 -9.050781 10.9375 -9.3125 C 10.425781 -9.582031 9.84375 -9.8125 9.1875 -10 C 8.53125 -10.1875 7.863281 -10.390625 7.1875 -10.609375 C 6.507812 -10.828125 5.84375 -11.085938 5.1875 -11.390625 C 4.53125 -11.703125 3.941406 -12.101562 3.421875 -12.59375 C 2.910156 -13.082031 2.5 -13.695312 2.1875 -14.4375 C 1.875 -15.175781 1.71875 -16.085938 1.71875 -17.171875 C 1.71875 -18.035156 1.890625 -18.875 2.234375 -19.6875 C 2.578125 -20.507812 3.078125 -21.238281 3.734375 -21.875 C 4.390625 -22.507812 5.195312 -23.015625 6.15625 -23.390625 C 7.125 -23.773438 8.234375 -23.96875 9.484375 -23.96875 C 10.878906 -23.96875 12.164062 -23.75 13.34375 -23.3125 C 14.53125 -22.875 15.535156 -22.265625 16.359375 -21.484375 Z M 15.265625 -19.40625 "/></g></g></g><g fill="#ffffff" fill-opacity="1"><g transform="translate(234.401253, 289.592046)"><g><path d="M 7.0625 -20.203125 L 7.0625 -13.625 L 15.359375 -13.625 L 15.359375 -10.234375 L 7.0625 -10.234375 L 7.0625 -3.53125 L 17.59375 -3.53125 L 17.59375 0 L 2.640625 0 L 2.640625 -23.71875 L 17.59375 -23.71875 L 17.59375 -20.203125 Z M 7.0625 -20.203125 "/></g></g></g></svg>