<svg xmlns="http://www.w3.org/2000/svg" xmlns:xlink="http://www.w3.org/1999/xlink" width="500" zoomAndPan="magnify" viewBox="0 0 375 374.999991" height="500" preserveAspectRatio="xMidYMid meet" version="1.0"><defs><g/><clipPath id="0de2c3872b"><path d="M 192.976562 106.460938 L 277.066406 106.460938 L 277.066406 172.976562 L 192.976562 172.976562 Z M 192.976562 106.460938 " clip-rule="nonzero"/></clipPath><clipPath id="9916d00c3c"><path d="M 223.863281 106.460938 L 330.398438 106.460938 L 330.398438 172.976562 L 223.863281 172.976562 Z M 223.863281 106.460938 " clip-rule="nonzero"/></clipPath><clipPath id="aa09fad0f0"><path d="M 277.066406 106.460938 L 330.269531 172.976562 L 223.863281 172.976562 Z M 277.066406 106.460938 " clip-rule="nonzero"/></clipPath><clipPath id="4758ad2779"><path d="M 148.191406 78.367188 L 299.71875 78.367188 L 299.71875 172.976562 L 148.191406 172.976562 Z M 148.191406 78.367188 " clip-rule="nonzero"/></clipPath><clipPath id="8b2fc27322"><path d="M 223.863281 78.367188 L 299.535156 172.976562 L 148.191406 172.976562 Z M 223.863281 78.367188 " clip-rule="nonzero"/></clipPath><clipPath id="2ce7864ac9"><path d="M 68.957031 89.539062 L 91.71875 89.539062 L 91.71875 151.832031 L 68.957031 151.832031 Z M 68.957031 89.539062 " clip-rule="nonzero"/></clipPath><clipPath id="29e4729adb"><path d="M 46.324219 78.367188 L 197.851562 78.367188 L 197.851562 172.976562 L 46.324219 172.976562 Z M 46.324219 78.367188 " clip-rule="nonzero"/></clipPath><clipPath id="452155d228"><path d="M 121.996094 78.367188 L 197.667969 172.976562 L 46.324219 172.976562 Z M 121.996094 78.367188 " clip-rule="nonzero"/></clipPath><clipPath id="29b57c644b"><path d="M 121.996094 78.367188 L 223.863281 78.367188 L 223.863281 172.976562 L 121.996094 172.976562 Z M 121.996094 78.367188 " clip-rule="nonzero"/></clipPath><clipPath id="19648ebf22"><path d="M 223.863281 114.417969 L 324 114.417969 L 324 176.957031 L 223.863281 176.957031 Z M 223.863281 114.417969 " clip-rule="nonzero"/></clipPath><clipPath id="7d8a1e51fc"><path d="M 273.882812 114.417969 L 323.902344 176.957031 L 223.863281 176.957031 Z M 273.882812 114.417969 " clip-rule="nonzero"/></clipPath><clipPath id="1569e69788"><path d="M 198 99 L 278 99 L 278 110 L 198 110 Z M 198 99 " clip-rule="nonzero"/></clipPath><clipPath id="d43d14bcb1"><path d="M 198.382812 112.773438 L 197.800781 105.511719 L 276.507812 99.191406 L 277.09375 106.453125 Z M 198.382812 112.773438 " clip-rule="nonzero"/></clipPath><clipPath id="7391cddcac"><path d="M 198.089844 109.140625 L 276.484375 99.191406 L 277.070312 106.453125 Z M 198.089844 109.140625 " clip-rule="nonzero"/></clipPath><clipPath id="e0c05ea41b"><path d="M 54.339844 86.308594 L 195.449219 86.308594 L 195.449219 174.417969 L 54.339844 174.417969 Z M 54.339844 86.308594 " clip-rule="nonzero"/></clipPath><clipPath id="7f561abc13"><path d="M 124.808594 86.308594 L 195.28125 174.417969 L 54.339844 174.417969 Z M 124.808594 86.308594 " clip-rule="nonzero"/></clipPath><clipPath id="4bcd8ce358"><path d="M 66.882812 89.539062 L 93.792969 89.539062 L 93.792969 96.328125 L 66.882812 96.328125 Z M 66.882812 89.539062 " clip-rule="nonzero"/></clipPath><clipPath id="59a6e84fab"><path d="M 112.917969 143.785156 L 123.808594 143.785156 L 123.808594 154.882812 L 112.917969 154.882812 Z M 112.917969 143.785156 " clip-rule="nonzero"/></clipPath><clipPath id="ef39adddef"><path d="M 264.175781 150.546875 L 273.066406 150.546875 L 273.066406 159.605469 L 264.175781 159.605469 Z M 264.175781 150.546875 " clip-rule="nonzero"/></clipPath><clipPath id="341637cd4a"><path d="M 112.917969 129.71875 L 123.808594 129.71875 L 123.808594 140.816406 L 112.917969 140.816406 Z M 112.917969 129.71875 " clip-rule="nonzero"/></clipPath><clipPath id="e6909522b7"><path d="M 264.175781 139.066406 L 273.066406 139.066406 L 273.066406 148.125 L 264.175781 148.125 Z M 264.175781 139.066406 " clip-rule="nonzero"/></clipPath><clipPath id="f3fa963b79"><path d="M 125.808594 143.785156 L 136.703125 143.785156 L 136.703125 154.882812 L 125.808594 154.882812 Z M 125.808594 143.785156 " clip-rule="nonzero"/></clipPath><clipPath id="9730d5b5e4"><path d="M 274.699219 150.546875 L 283.589844 150.546875 L 283.589844 159.605469 L 274.699219 159.605469 Z M 274.699219 150.546875 " clip-rule="nonzero"/></clipPath><clipPath id="03dce0c4fe"><path d="M 125.808594 129.71875 L 136.703125 129.71875 L 136.703125 140.816406 L 125.808594 140.816406 Z M 125.808594 129.71875 " clip-rule="nonzero"/></clipPath><clipPath id="2812a6d354"><path d="M 274.699219 139.066406 L 283.589844 139.066406 L 283.589844 148.125 L 274.699219 148.125 Z M 274.699219 139.066406 " clip-rule="nonzero"/></clipPath><clipPath id="77cdcb7e36"><path d="M 4.773438 162.09375 L 370.289062 162.09375 L 370.289062 209.09375 L 4.773438 209.09375 Z M 4.773438 162.09375 " clip-rule="nonzero"/></clipPath><clipPath id="6683baa816"><path d="M 187.5 162.09375 C 86.582031 162.09375 4.773438 172.617188 4.773438 185.59375 C 4.773438 198.570312 86.582031 209.09375 187.5 209.09375 C 288.417969 209.09375 370.226562 198.570312 370.226562 185.59375 C 370.226562 172.617188 288.417969 162.09375 187.5 162.09375 Z M 187.5 162.09375 " clip-rule="nonzero"/></clipPath><clipPath id="4bceba1acc"><path d="M 0 169.566406 L 375 169.566406 L 375 216.5625 L 0 216.5625 Z M 0 169.566406 " clip-rule="nonzero"/></clipPath><clipPath id="12dcaea12a"><path d="M 187.5 169.566406 C 74.25 169.566406 -17.558594 180.085938 -17.558594 193.066406 C -17.558594 206.042969 74.25 216.5625 187.5 216.5625 C 300.75 216.5625 392.558594 206.042969 392.558594 193.066406 C 392.558594 180.085938 300.75 169.566406 187.5 169.566406 Z M 187.5 169.566406 " clip-rule="nonzero"/></clipPath></defs><rect x="-37.5" width="450" fill="#ffffff" y="-37.499999" height="449.999989" fill-opacity="1"/><rect x="-37.5" width="450" fill="#12763e" y="-37.499999" height="449.999989" fill-opacity="1"/><g clip-path="url(#0de2c3872b)"><path fill="#ffffff" d="M 192.976562 106.460938 L 277.164062 106.460938 L 277.164062 172.976562 L 192.976562 172.976562 Z M 192.976562 106.460938 " fill-opacity="1" fill-rule="nonzero"/></g><g clip-path="url(#9916d00c3c)"><g clip-path="url(#aa09fad0f0)"><path fill="#ffffff" d="M 223.863281 106.460938 L 330.398438 106.460938 L 330.398438 172.976562 L 223.863281 172.976562 Z M 223.863281 106.460938 " fill-opacity="1" fill-rule="nonzero"/></g></g><g clip-path="url(#4758ad2779)"><g clip-path="url(#8b2fc27322)"><path fill="#ffffff" d="M 148.191406 78.367188 L 299.71875 78.367188 L 299.71875 172.976562 L 148.191406 172.976562 Z M 148.191406 78.367188 " fill-opacity="1" fill-rule="nonzero"/></g></g><g clip-path="url(#2ce7864ac9)"><path fill="#ffffff" d="M 68.957031 89.539062 L 91.71875 89.539062 L 91.71875 151.867188 L 68.957031 151.867188 Z M 68.957031 89.539062 " fill-opacity="1" fill-rule="nonzero"/></g><g clip-path="url(#29e4729adb)"><g clip-path="url(#452155d228)"><path fill="#ffffff" d="M 46.324219 78.367188 L 197.851562 78.367188 L 197.851562 172.976562 L 46.324219 172.976562 Z M 46.324219 78.367188 " fill-opacity="1" fill-rule="nonzero"/></g></g><g clip-path="url(#29b57c644b)"><path fill="#ffffff" d="M 121.996094 78.367188 L 224 78.367188 L 224 172.976562 L 121.996094 172.976562 Z M 121.996094 78.367188 " fill-opacity="1" fill-rule="nonzero"/></g><g clip-path="url(#19648ebf22)"><g clip-path="url(#7d8a1e51fc)"><path fill="#12763e" d="M 223.863281 114.417969 L 324.023438 114.417969 L 324.023438 176.957031 L 223.863281 176.957031 Z M 223.863281 114.417969 " fill-opacity="1" fill-rule="nonzero"/></g></g><g clip-path="url(#1569e69788)"><g clip-path="url(#d43d14bcb1)"><g clip-path="url(#7391cddcac)"><path fill="#12763e" d="M 198.382812 112.773438 L 197.800781 105.511719 L 276.480469 99.191406 L 277.0625 106.453125 Z M 198.382812 112.773438 " fill-opacity="1" fill-rule="nonzero"/></g></g></g><g clip-path="url(#e0c05ea41b)"><g clip-path="url(#7f561abc13)"><path fill="#12763e" d="M 54.339844 86.308594 L 195.449219 86.308594 L 195.449219 174.417969 L 54.339844 174.417969 Z M 54.339844 86.308594 " fill-opacity="1" fill-rule="nonzero"/></g></g><g clip-path="url(#4bcd8ce358)"><path fill="#ffffff" d="M 66.882812 89.539062 L 93.800781 89.539062 L 93.800781 96.328125 L 66.882812 96.328125 Z M 66.882812 89.539062 " fill-opacity="1" fill-rule="nonzero"/></g><g clip-path="url(#59a6e84fab)"><path fill="#ffffff" d="M 112.917969 143.785156 L 123.808594 143.785156 L 123.808594 154.890625 L 112.917969 154.890625 Z M 112.917969 143.785156 " fill-opacity="1" fill-rule="nonzero"/></g><g clip-path="url(#ef39adddef)"><path fill="#ffffff" d="M 264.175781 150.546875 L 273.066406 150.546875 L 273.066406 159.609375 L 264.175781 159.609375 Z M 264.175781 150.546875 " fill-opacity="1" fill-rule="nonzero"/></g><g clip-path="url(#341637cd4a)"><path fill="#ffffff" d="M 112.917969 129.71875 L 123.808594 129.71875 L 123.808594 140.824219 L 112.917969 140.824219 Z M 112.917969 129.71875 " fill-opacity="1" fill-rule="nonzero"/></g><g clip-path="url(#e6909522b7)"><path fill="#ffffff" d="M 264.175781 139.066406 L 273.066406 139.066406 L 273.066406 148.128906 L 264.175781 148.128906 Z M 264.175781 139.066406 " fill-opacity="1" fill-rule="nonzero"/></g><g clip-path="url(#f3fa963b79)"><path fill="#ffffff" d="M 125.808594 143.785156 L 136.703125 143.785156 L 136.703125 154.890625 L 125.808594 154.890625 Z M 125.808594 143.785156 " fill-opacity="1" fill-rule="nonzero"/></g><g clip-path="url(#9730d5b5e4)"><path fill="#ffffff" d="M 274.699219 150.546875 L 283.589844 150.546875 L 283.589844 159.609375 L 274.699219 159.609375 Z M 274.699219 150.546875 " fill-opacity="1" fill-rule="nonzero"/></g><g clip-path="url(#03dce0c4fe)"><path fill="#ffffff" d="M 125.808594 129.71875 L 136.703125 129.71875 L 136.703125 140.824219 L 125.808594 140.824219 Z M 125.808594 129.71875 " fill-opacity="1" fill-rule="nonzero"/></g><g clip-path="url(#2812a6d354)"><path fill="#ffffff" d="M 274.699219 139.066406 L 283.589844 139.066406 L 283.589844 148.128906 L 274.699219 148.128906 Z M 274.699219 139.066406 " fill-opacity="1" fill-rule="nonzero"/></g><g clip-path="url(#77cdcb7e36)"><g clip-path="url(#6683baa816)"><path fill="#ffffff" d="M 4.773438 162.09375 L 370.289062 162.09375 L 370.289062 209.09375 L 4.773438 209.09375 Z M 4.773438 162.09375 " fill-opacity="1" fill-rule="nonzero"/></g></g><g clip-path="url(#4bceba1acc)"><g clip-path="url(#12dcaea12a)"><path fill="#12763e" d="M -17.558594 169.566406 L 392.570312 169.566406 L 392.570312 216.5625 L -17.558594 216.5625 Z M -17.558594 169.566406 " fill-opacity="1" fill-rule="nonzero"/></g></g><g fill="#ffffff" fill-opacity="1"><g transform="translate(13.445541, 254.797376)"><g><path d="M 50.296875 -25.15625 C 50.296875 -21.46875 49.679688 -18.082031 48.453125 -15 C 47.222656 -11.914062 45.492188 -9.257812 43.265625 -7.03125 C 41.035156 -4.800781 38.351562 -3.070312 35.21875 -1.84375 C 32.09375 -0.613281 28.613281 0 24.78125 0 L 5.609375 0 L 5.609375 -50.328125 L 24.78125 -50.328125 C 28.613281 -50.328125 32.09375 -49.707031 35.21875 -48.46875 C 38.351562 -47.226562 41.035156 -45.5 43.265625 -43.28125 C 45.492188 -41.0625 47.222656 -38.410156 48.453125 -35.328125 C 49.679688 -32.242188 50.296875 -28.851562 50.296875 -25.15625 Z M 40.6875 -25.15625 C 40.6875 -27.925781 40.320312 -30.40625 39.59375 -32.59375 C 38.863281 -34.789062 37.804688 -36.644531 36.421875 -38.15625 C 35.046875 -39.675781 33.375 -40.84375 31.40625 -41.65625 C 29.445312 -42.46875 27.238281 -42.875 24.78125 -42.875 L 15 -42.875 L 15 -7.453125 L 24.78125 -7.453125 C 27.238281 -7.453125 29.445312 -7.859375 31.40625 -8.671875 C 33.375 -9.484375 35.046875 -10.644531 36.421875 -12.15625 C 37.804688 -13.675781 38.863281 -15.53125 39.59375 -17.71875 C 40.320312 -19.914062 40.6875 -22.394531 40.6875 -25.15625 Z M 40.6875 -25.15625 "/></g></g></g><g fill="#ffffff" fill-opacity="1"><g transform="translate(74.303775, 254.797376)"><g><path d="M 32.1875 -19 L 26.0625 -35.75 C 25.757812 -36.488281 25.445312 -37.367188 25.125 -38.390625 C 24.800781 -39.410156 24.476562 -40.515625 24.15625 -41.703125 C 23.851562 -40.515625 23.539062 -39.40625 23.21875 -38.375 C 22.894531 -37.34375 22.582031 -36.441406 22.28125 -35.671875 L 16.1875 -19 Z M 48.71875 0 L 41.484375 0 C 40.671875 0 40.007812 -0.203125 39.5 -0.609375 C 38.988281 -1.015625 38.609375 -1.519531 38.359375 -2.125 L 34.59375 -12.390625 L 13.75 -12.390625 L 9.984375 -2.125 C 9.796875 -1.59375 9.4375 -1.101562 8.90625 -0.65625 C 8.375 -0.21875 7.710938 0 6.921875 0 L -0.390625 0 L 19.421875 -50.328125 L 28.953125 -50.328125 Z M 48.71875 0 "/></g></g></g><g fill="#ffffff" fill-opacity="1"><g transform="translate(130.569179, 254.797376)"><g><path d="M 48.71875 -50.328125 L 28.40625 0 L 19.9375 0 L -0.390625 -50.328125 L 7.140625 -50.328125 C 7.953125 -50.328125 8.613281 -50.128906 9.125 -49.734375 C 9.632812 -49.335938 10.015625 -48.828125 10.265625 -48.203125 L 22.140625 -17.5 C 22.535156 -16.507812 22.910156 -15.414062 23.265625 -14.21875 C 23.628906 -13.019531 23.972656 -11.769531 24.296875 -10.46875 C 24.578125 -11.769531 24.878906 -13.019531 25.203125 -14.21875 C 25.523438 -15.414062 25.882812 -16.507812 26.28125 -17.5 L 38.078125 -48.203125 C 38.265625 -48.734375 38.628906 -49.21875 39.171875 -49.65625 C 39.710938 -50.101562 40.378906 -50.328125 41.171875 -50.328125 Z M 48.71875 -50.328125 "/></g></g></g><g fill="#ffffff" fill-opacity="1"><g transform="translate(186.834591, 254.797376)"><g><path d="M 60.171875 -50.328125 L 60.171875 0 L 51.921875 0 L 51.921875 -32.5 C 51.921875 -33.800781 51.992188 -35.207031 52.140625 -36.71875 L 36.921875 -8.140625 C 36.203125 -6.773438 35.101562 -6.09375 33.625 -6.09375 L 32.296875 -6.09375 C 30.816406 -6.09375 29.71875 -6.773438 29 -8.140625 L 13.609375 -36.828125 C 13.679688 -36.054688 13.738281 -35.300781 13.78125 -34.5625 C 13.832031 -33.820312 13.859375 -33.132812 13.859375 -32.5 L 13.859375 0 L 5.609375 0 L 5.609375 -50.328125 L 12.671875 -50.328125 C 13.085938 -50.328125 13.445312 -50.316406 13.75 -50.296875 C 14.050781 -50.273438 14.320312 -50.21875 14.5625 -50.125 C 14.8125 -50.03125 15.03125 -49.878906 15.21875 -49.671875 C 15.414062 -49.460938 15.609375 -49.179688 15.796875 -48.828125 L 30.875 -20.875 C 31.269531 -20.132812 31.632812 -19.367188 31.96875 -18.578125 C 32.300781 -17.796875 32.628906 -16.988281 32.953125 -16.15625 C 33.285156 -17.007812 33.625 -17.835938 33.96875 -18.640625 C 34.3125 -19.441406 34.679688 -20.210938 35.078125 -20.953125 L 49.9375 -48.828125 C 50.125 -49.179688 50.320312 -49.460938 50.53125 -49.671875 C 50.738281 -49.878906 50.960938 -50.03125 51.203125 -50.125 C 51.453125 -50.21875 51.726562 -50.273438 52.03125 -50.296875 C 52.332031 -50.316406 52.691406 -50.328125 53.109375 -50.328125 Z M 60.171875 -50.328125 "/></g></g></g><g fill="#ffffff" fill-opacity="1"><g transform="translate(260.531788, 254.797376)"><g><path d="M 32.1875 -19 L 26.0625 -35.75 C 25.757812 -36.488281 25.445312 -37.367188 25.125 -38.390625 C 24.800781 -39.410156 24.476562 -40.515625 24.15625 -41.703125 C 23.851562 -40.515625 23.539062 -39.40625 23.21875 -38.375 C 22.894531 -37.34375 22.582031 -36.441406 22.28125 -35.671875 L 16.1875 -19 Z M 48.71875 0 L 41.484375 0 C 40.671875 0 40.007812 -0.203125 39.5 -0.609375 C 38.988281 -1.015625 38.609375 -1.519531 38.359375 -2.125 L 34.59375 -12.390625 L 13.75 -12.390625 L 9.984375 -2.125 C 9.796875 -1.59375 9.4375 -1.101562 8.90625 -0.65625 C 8.375 -0.21875 7.710938 0 6.921875 0 L -0.390625 0 L 19.421875 -50.328125 L 28.953125 -50.328125 Z M 48.71875 0 "/></g></g></g><g fill="#ffffff" fill-opacity="1"><g transform="translate(316.797185, 254.797376)"><g><path d="M 20.8125 -26.375 C 22.570312 -26.375 24.109375 -26.59375 25.421875 -27.03125 C 26.734375 -27.476562 27.8125 -28.085938 28.65625 -28.859375 C 29.507812 -29.640625 30.144531 -30.5625 30.5625 -31.625 C 30.976562 -32.695312 31.1875 -33.875 31.1875 -35.15625 C 31.1875 -37.707031 30.34375 -39.664062 28.65625 -41.03125 C 26.976562 -42.40625 24.410156 -43.09375 20.953125 -43.09375 L 14.96875 -43.09375 L 14.96875 -26.375 Z M 44.890625 0 L 36.4375 0 C 34.832031 0 33.671875 -0.625 32.953125 -1.875 L 22.375 -18 C 21.976562 -18.601562 21.539062 -19.03125 21.0625 -19.28125 C 20.59375 -19.539062 19.894531 -19.671875 18.96875 -19.671875 L 14.96875 -19.671875 L 14.96875 0 L 5.609375 0 L 5.609375 -50.328125 L 20.953125 -50.328125 C 24.359375 -50.328125 27.285156 -49.972656 29.734375 -49.265625 C 32.179688 -48.554688 34.1875 -47.5625 35.75 -46.28125 C 37.320312 -45.007812 38.476562 -43.484375 39.21875 -41.703125 C 39.96875 -39.929688 40.34375 -37.976562 40.34375 -35.84375 C 40.34375 -34.15625 40.09375 -32.554688 39.59375 -31.046875 C 39.09375 -29.535156 38.367188 -28.164062 37.421875 -26.9375 C 36.484375 -25.707031 35.320312 -24.628906 33.9375 -23.703125 C 32.5625 -22.773438 30.992188 -22.046875 29.234375 -21.515625 C 29.835938 -21.160156 30.394531 -20.742188 30.90625 -20.265625 C 31.414062 -19.796875 31.878906 -19.234375 32.296875 -18.578125 Z M 44.890625 0 "/></g></g></g><g fill="#ffffff" fill-opacity="1"><g transform="translate(94.16871, 311.820229)"><g><path d="M 32.09375 -33.625 L 32.09375 0 L 25.8125 0 L 25.8125 -14.703125 L 10.03125 -14.703125 L 10.03125 0 L 3.75 0 L 3.75 -33.625 L 10.03125 -33.625 L 10.03125 -19.171875 L 25.8125 -19.171875 L 25.8125 -33.625 Z M 32.09375 -33.625 "/></g></g></g><g fill="#ffffff" fill-opacity="1"><g transform="translate(136.605312, 311.820229)"><g><path d="M 35.8125 -16.8125 C 35.8125 -14.351562 35.40625 -12.070312 34.59375 -9.96875 C 33.78125 -7.863281 32.628906 -6.039062 31.140625 -4.5 C 29.648438 -2.96875 27.859375 -1.769531 25.765625 -0.90625 C 23.671875 -0.0507812 21.347656 0.375 18.796875 0.375 C 16.253906 0.375 13.9375 -0.0507812 11.84375 -0.90625 C 9.75 -1.769531 7.953125 -2.96875 6.453125 -4.5 C 4.953125 -6.039062 3.789062 -7.863281 2.96875 -9.96875 C 2.15625 -12.070312 1.75 -14.351562 1.75 -16.8125 C 1.75 -19.28125 2.15625 -21.5625 2.96875 -23.65625 C 3.789062 -25.757812 4.953125 -27.578125 6.453125 -29.109375 C 7.953125 -30.648438 9.75 -31.847656 11.84375 -32.703125 C 13.9375 -33.566406 16.253906 -34 18.796875 -34 C 20.492188 -34 22.09375 -33.800781 23.59375 -33.40625 C 25.101562 -33.007812 26.484375 -32.453125 27.734375 -31.734375 C 28.992188 -31.015625 30.125 -30.140625 31.125 -29.109375 C 32.125 -28.078125 32.972656 -26.925781 33.671875 -25.65625 C 34.367188 -24.382812 34.898438 -23.003906 35.265625 -21.515625 C 35.628906 -20.023438 35.8125 -18.457031 35.8125 -16.8125 Z M 29.421875 -16.8125 C 29.421875 -18.65625 29.171875 -20.3125 28.671875 -21.78125 C 28.179688 -23.25 27.476562 -24.492188 26.5625 -25.515625 C 25.644531 -26.535156 24.53125 -27.316406 23.21875 -27.859375 C 21.90625 -28.398438 20.429688 -28.671875 18.796875 -28.671875 C 17.148438 -28.671875 15.671875 -28.398438 14.359375 -27.859375 C 13.046875 -27.316406 11.925781 -26.535156 11 -25.515625 C 10.082031 -24.492188 9.375 -23.25 8.875 -21.78125 C 8.382812 -20.3125 8.140625 -18.65625 8.140625 -16.8125 C 8.140625 -14.96875 8.382812 -13.3125 8.875 -11.84375 C 9.375 -10.382812 10.082031 -9.144531 11 -8.125 C 11.925781 -7.113281 13.046875 -6.335938 14.359375 -5.796875 C 15.671875 -5.253906 17.148438 -4.984375 18.796875 -4.984375 C 20.429688 -4.984375 21.90625 -5.253906 23.21875 -5.796875 C 24.53125 -6.335938 25.644531 -7.113281 26.5625 -8.125 C 27.476562 -9.144531 28.179688 -10.382812 28.671875 -11.84375 C 29.171875 -13.3125 29.421875 -14.96875 29.421875 -16.8125 Z M 29.421875 -16.8125 "/></g></g></g><g fill="#ffffff" fill-opacity="1"><g transform="translate(180.785707, 311.820229)"><g><path d="M 17.28125 -5.046875 C 18.488281 -5.046875 19.566406 -5.242188 20.515625 -5.640625 C 21.472656 -6.046875 22.273438 -6.613281 22.921875 -7.34375 C 23.578125 -8.070312 24.078125 -8.957031 24.421875 -10 C 24.773438 -11.039062 24.953125 -12.203125 24.953125 -13.484375 L 24.953125 -33.625 L 31.21875 -33.625 L 31.21875 -13.484375 C 31.21875 -11.484375 30.894531 -9.632812 30.25 -7.9375 C 29.601562 -6.238281 28.675781 -4.773438 27.46875 -3.546875 C 26.269531 -2.316406 24.8125 -1.351562 23.09375 -0.65625 C 21.375 0.03125 19.4375 0.375 17.28125 0.375 C 15.113281 0.375 13.164062 0.03125 11.4375 -0.65625 C 9.71875 -1.351562 8.253906 -2.316406 7.046875 -3.546875 C 5.847656 -4.773438 4.925781 -6.238281 4.28125 -7.9375 C 3.644531 -9.632812 3.328125 -11.484375 3.328125 -13.484375 L 3.328125 -33.625 L 9.578125 -33.625 L 9.578125 -13.515625 C 9.578125 -12.222656 9.75 -11.054688 10.09375 -10.015625 C 10.445312 -8.984375 10.953125 -8.097656 11.609375 -7.359375 C 12.273438 -6.617188 13.082031 -6.046875 14.03125 -5.640625 C 14.988281 -5.242188 16.070312 -5.046875 17.28125 -5.046875 Z M 17.28125 -5.046875 "/></g></g></g><g fill="#ffffff" fill-opacity="1"><g transform="translate(221.920281, 311.820229)"><g><path d="M 21.65625 -27.515625 C 21.46875 -27.191406 21.269531 -26.953125 21.0625 -26.796875 C 20.851562 -26.648438 20.59375 -26.578125 20.28125 -26.578125 C 19.957031 -26.578125 19.601562 -26.695312 19.21875 -26.9375 C 18.84375 -27.175781 18.390625 -27.441406 17.859375 -27.734375 C 17.335938 -28.035156 16.722656 -28.304688 16.015625 -28.546875 C 15.304688 -28.785156 14.472656 -28.90625 13.515625 -28.90625 C 12.640625 -28.90625 11.875 -28.800781 11.21875 -28.59375 C 10.570312 -28.382812 10.03125 -28.09375 9.59375 -27.71875 C 9.15625 -27.351562 8.828125 -26.910156 8.609375 -26.390625 C 8.390625 -25.867188 8.28125 -25.296875 8.28125 -24.671875 C 8.28125 -23.878906 8.5 -23.21875 8.9375 -22.6875 C 9.382812 -22.164062 9.972656 -21.71875 10.703125 -21.34375 C 11.429688 -20.976562 12.257812 -20.644531 13.1875 -20.34375 C 14.113281 -20.050781 15.066406 -19.738281 16.046875 -19.40625 C 17.023438 -19.070312 17.976562 -18.679688 18.90625 -18.234375 C 19.832031 -17.796875 20.660156 -17.238281 21.390625 -16.5625 C 22.117188 -15.894531 22.703125 -15.070312 23.140625 -14.09375 C 23.585938 -13.113281 23.8125 -11.925781 23.8125 -10.53125 C 23.8125 -9.007812 23.550781 -7.585938 23.03125 -6.265625 C 22.507812 -4.941406 21.75 -3.785156 20.75 -2.796875 C 19.75 -1.816406 18.53125 -1.039062 17.09375 -0.46875 C 15.65625 0.09375 14.003906 0.375 12.140625 0.375 C 11.066406 0.375 10.007812 0.269531 8.96875 0.0625 C 7.9375 -0.144531 6.941406 -0.441406 5.984375 -0.828125 C 5.035156 -1.222656 4.140625 -1.691406 3.296875 -2.234375 C 2.460938 -2.773438 1.71875 -3.378906 1.0625 -4.046875 L 2.90625 -7.046875 C 3.0625 -7.265625 3.265625 -7.445312 3.515625 -7.59375 C 3.765625 -7.738281 4.023438 -7.8125 4.296875 -7.8125 C 4.691406 -7.8125 5.113281 -7.648438 5.5625 -7.328125 C 6.007812 -7.015625 6.539062 -6.664062 7.15625 -6.28125 C 7.78125 -5.894531 8.503906 -5.539062 9.328125 -5.21875 C 10.160156 -4.90625 11.160156 -4.75 12.328125 -4.75 C 14.109375 -4.75 15.488281 -5.171875 16.46875 -6.015625 C 17.445312 -6.859375 17.9375 -8.070312 17.9375 -9.65625 C 17.9375 -10.539062 17.710938 -11.257812 17.265625 -11.8125 C 16.828125 -12.375 16.242188 -12.84375 15.515625 -13.21875 C 14.785156 -13.601562 13.953125 -13.925781 13.015625 -14.1875 C 12.085938 -14.445312 11.144531 -14.734375 10.1875 -15.046875 C 9.226562 -15.359375 8.28125 -15.726562 7.34375 -16.15625 C 6.414062 -16.59375 5.585938 -17.160156 4.859375 -17.859375 C 4.128906 -18.554688 3.539062 -19.425781 3.09375 -20.46875 C 2.65625 -21.519531 2.4375 -22.8125 2.4375 -24.34375 C 2.4375 -25.570312 2.679688 -26.765625 3.171875 -27.921875 C 3.660156 -29.085938 4.367188 -30.117188 5.296875 -31.015625 C 6.234375 -31.921875 7.382812 -32.644531 8.75 -33.1875 C 10.113281 -33.726562 11.675781 -34 13.4375 -34 C 15.425781 -34 17.253906 -33.6875 18.921875 -33.0625 C 20.597656 -32.445312 22.03125 -31.582031 23.21875 -30.46875 Z M 21.65625 -27.515625 "/></g></g></g><g fill="#ffffff" fill-opacity="1"><g transform="translate(254.033671, 311.820229)"><g><path d="M 10.03125 -28.65625 L 10.03125 -19.328125 L 21.796875 -19.328125 L 21.796875 -14.515625 L 10.03125 -14.515625 L 10.03125 -5 L 24.953125 -5 L 24.953125 0 L 3.75 0 L 3.75 -33.625 L 24.953125 -33.625 L 24.953125 -28.65625 Z M 10.03125 -28.65625 "/></g></g></g></svg>